# Blender v2.78 (sub 0) OBJ File: 'cube.blend'
# www.blender.org
mtllib smoothCube.mtl
o Cube
v 1.000000 -1.000000 -1.000000
v 1.000000 -1.000000 1.000000
v -1.000000 -1.000000 1.000000
v -1.000000 -1.000000 -1.000000
v 1.000000 1.000000 -0.999999
v 0.999999 1.000000 1.000001
v -1.000000 1.000000 1.000000
v -1.000000 1.000000 -1.000000
vt 0.0000 -1.0000
vt -1.0000 0.0000
vt 0.0000 0.0000
vt -1.0000 1.0000
vt -0.0000 -0.0000
vt 0.0000 1.0000
vt -1.0000 0.0000
vt -0.0000 1.0000
vt -1.0000 0.0000
vt 0.0000 0.0000
vt 0.0000 0.0000
vt 1.0000 1.0000
vt 1.0000 0.0000
vt 0.0000 -1.0000
vt -1.0000 0.0000
vt 0.0000 0.0000
vt -1.0000 -1.0000
vt -1.0000 0.0000
vt -1.0000 1.0000
vt -1.0000 1.0000
vt 0.0000 1.0000
vt -1.0000 -1.0000
vn 0.5773 -0.5773 0.5773
vn -0.5773 -0.5773 -0.5773
vn 0.5773 -0.5773 -0.5773
vn -0.5773 0.5773 -0.5773
vn 0.5773 0.5773 0.5773
vn 0.5773 0.5773 -0.5773
vn -0.5773 -0.5773 0.5773
vn -0.5773 0.5773 0.5773
usemtl Material
s 1
f 2/1/1 4/2/2 1/3/3
f 8/4/4 6/5/5 5/6/6
f 5/6/6 2/7/1 1/3/3
f 6/8/5 3/9/7 2/10/1
f 3/11/7 8/12/4 4/13/2
f 1/14/3 8/15/4 5/16/6
f 2/1/1 3/17/7 4/2/2
f 8/4/4 7/18/8 6/5/5
f 5/6/6 6/19/5 2/7/1
f 6/8/5 7/20/8 3/9/7
f 3/11/7 7/21/8 8/12/4
f 1/14/3 4/22/2 8/15/4
