# Blender v2.78 (sub 0) OBJ File: 'cylinder.blend'
# www.blender.org
mtllib cylinder.mtl
o Cylinder
v 0.000000 -1.000000 -1.000000
v 0.000000 1.000000 -1.000000
v 0.195090 -1.000000 -0.980785
v 0.195090 1.000000 -0.980785
v 0.382683 -1.000000 -0.923880
v 0.382683 1.000000 -0.923880
v 0.555570 -1.000000 -0.831470
v 0.555570 1.000000 -0.831470
v 0.707107 -1.000000 -0.707107
v 0.707107 1.000000 -0.707107
v 0.831470 -1.000000 -0.555570
v 0.831470 1.000000 -0.555570
v 0.923880 -1.000000 -0.382683
v 0.923880 1.000000 -0.382683
v 0.980785 -1.000000 -0.195090
v 0.980785 1.000000 -0.195090
v 1.000000 -1.000000 -0.000000
v 1.000000 1.000000 -0.000000
v 0.980785 -1.000000 0.195090
v 0.980785 1.000000 0.195090
v 0.923880 -1.000000 0.382683
v 0.923880 1.000000 0.382683
v 0.831470 -1.000000 0.555570
v 0.831470 1.000000 0.555570
v 0.707107 -1.000000 0.707107
v 0.707107 1.000000 0.707107
v 0.555570 -1.000000 0.831470
v 0.555570 1.000000 0.831470
v 0.382683 -1.000000 0.923880
v 0.382683 1.000000 0.923880
v 0.195090 -1.000000 0.980785
v 0.195090 1.000000 0.980785
v -0.000000 -1.000000 1.000000
v -0.000000 1.000000 1.000000
v -0.195091 -1.000000 0.980785
v -0.195091 1.000000 0.980785
v -0.382684 -1.000000 0.923879
v -0.382684 1.000000 0.923879
v -0.555571 -1.000000 0.831469
v -0.555571 1.000000 0.831469
v -0.707107 -1.000000 0.707106
v -0.707107 1.000000 0.707106
v -0.831470 -1.000000 0.555570
v -0.831470 1.000000 0.555570
v -0.923880 -1.000000 0.382683
v -0.923880 1.000000 0.382683
v -0.980785 -1.000000 0.195089
v -0.980785 1.000000 0.195089
v -1.000000 -1.000000 -0.000001
v -1.000000 1.000000 -0.000001
v -0.980785 -1.000000 -0.195091
v -0.980785 1.000000 -0.195091
v -0.923879 -1.000000 -0.382684
v -0.923879 1.000000 -0.382684
v -0.831469 -1.000000 -0.555571
v -0.831469 1.000000 -0.555571
v -0.707106 -1.000000 -0.707108
v -0.707106 1.000000 -0.707108
v -0.555569 -1.000000 -0.831470
v -0.555569 1.000000 -0.831470
v -0.382682 -1.000000 -0.923880
v -0.382682 1.000000 -0.923880
v -0.195089 -1.000000 -0.980786
v -0.195089 1.000000 -0.980786
vt 0.7351 1.0443
vt 0.8416 0.1083
vt 0.8642 0.1493
vt 0.7094 1.0033
vt 0.8187 0.0651
vt 0.6852 0.9601
vt 0.7952 0.0214
vt 0.6620 0.9164
vt 0.7705 -0.0211
vt 0.6393 0.8739
vt 0.7437 -0.0607
vt 0.6167 0.8343
vt 0.7136 -0.0961
vt 0.5941 0.7990
vt 0.6783 -0.1256
vt 0.5714 0.7694
vt 0.6350 -0.1484
vt 0.5484 0.7467
vt 0.5806 -0.1634
vt 0.5252 0.7316
vt 0.5152 -0.1702
vt 0.5020 0.7249
vt 0.4465 -0.1683
vt 0.4787 0.7267
vt 0.3853 -0.1580
vt 0.4554 0.7370
vt 0.3359 -0.1396
vt 0.4324 0.7554
vt 0.2964 -0.1138
vt 0.4095 0.7812
vt 0.2636 -0.0817
vt 0.3868 0.8134
vt 0.2351 -0.0443
vt 0.3642 0.8507
vt 0.2094 -0.0033
vt 0.3416 0.8917
vt 0.1852 0.0399
vt 0.3187 0.9349
vt 0.1620 0.0836
vt 0.2952 0.9786
vt 0.1393 0.1261
vt 0.2705 1.0211
vt 0.1167 0.1657
vt 0.2437 1.0607
vt 0.0941 0.2010
vt 0.2136 1.0961
vt 0.0714 0.2306
vt 0.1783 1.1256
vt 0.0484 0.2533
vt 0.1350 1.1484
vt 0.0252 0.2684
vt 0.0806 1.1634
vt 0.0020 0.2751
vt 1.0152 1.1702
vt 0.9787 0.2733
vt 1.0020 0.2751
vt 0.9465 1.1683
vt 0.9554 0.2630
vt 0.8853 1.1580
vt 0.9324 0.2446
vt 0.8359 1.1396
vt 0.9095 0.2188
vt 1.4095 0.7812
vt 0.7964 1.1138
vt 0.8868 0.1866
vt 0.7636 1.0817
vt 1.2636 -0.0817
vt 1.0714 0.2306
vt 0.0152 1.1702
vt 1.0806 1.1634
vt 1.1350 1.1484
vt 1.1783 1.1256
vt 1.2136 1.0961
vt 1.2437 1.0607
vt 1.3187 0.9349
vt 1.2705 1.0211
vt 1.2952 0.9786
vt 1.3416 0.8917
vt 1.3642 0.8507
vt 1.3868 0.8134
vt 1.4324 0.7554
vt 1.4465 -0.1683
vt 1.3853 -0.1580
vt 1.3359 -0.1396
vt 1.2964 -0.1138
vt 1.2351 -0.0443
vt 1.2094 -0.0033
vt 1.1852 0.0399
vt 1.1620 0.0836
vt 1.1393 0.1261
vt 1.1167 0.1657
vt 1.0941 0.2010
vt 1.0484 0.2533
vt 1.0252 0.2684
vn 0.0000 0.6857 -0.7279
vn 0.1420 -0.6857 -0.7139
vn 0.0000 -0.6857 -0.7279
vn 0.1420 0.6857 -0.7139
vn 0.2785 -0.6857 -0.6725
vn 0.2785 0.6857 -0.6725
vn 0.4044 -0.6857 -0.6052
vn 0.4044 0.6857 -0.6052
vn 0.5147 -0.6857 -0.5147
vn 0.5147 0.6857 -0.5147
vn 0.6052 -0.6857 -0.4044
vn 0.6052 0.6857 -0.4044
vn 0.6725 -0.6857 -0.2785
vn 0.6725 0.6857 -0.2785
vn 0.7139 -0.6857 -0.1420
vn 0.7139 0.6857 -0.1420
vn 0.7279 -0.6857 0.0000
vn 0.7279 0.6857 0.0000
vn 0.7139 -0.6857 0.1420
vn 0.7139 0.6857 0.1420
vn 0.6725 -0.6857 0.2785
vn 0.6725 0.6857 0.2785
vn 0.6052 -0.6857 0.4044
vn 0.6052 0.6857 0.4044
vn 0.5147 -0.6857 0.5147
vn 0.5147 0.6857 0.5147
vn 0.4044 -0.6857 0.6052
vn 0.4044 0.6857 0.6052
vn 0.2785 -0.6857 0.6725
vn 0.2785 0.6857 0.6725
vn 0.1420 -0.6857 0.7139
vn 0.1420 0.6857 0.7139
vn 0.0000 -0.6857 0.7279
vn 0.0000 0.6857 0.7279
vn -0.1420 -0.6857 0.7139
vn -0.1420 0.6857 0.7139
vn -0.2785 -0.6857 0.6725
vn -0.2785 0.6857 0.6725
vn -0.4044 -0.6857 0.6052
vn -0.4044 0.6857 0.6052
vn -0.5147 -0.6857 0.5147
vn -0.5147 0.6857 0.5147
vn -0.6052 -0.6857 0.4044
vn -0.6052 0.6857 0.4044
vn -0.6725 -0.6857 0.2785
vn -0.6725 0.6857 0.2785
vn -0.7139 -0.6857 0.1420
vn -0.7139 0.6857 0.1420
vn -0.7279 -0.6857 0.0000
vn -0.7279 0.6857 0.0000
vn -0.7139 -0.6857 -0.1420
vn -0.7139 0.6857 -0.1420
vn -0.6725 -0.6857 -0.2785
vn -0.6725 0.6857 -0.2785
vn -0.6052 -0.6857 -0.4044
vn -0.6052 0.6857 -0.4044
vn -0.5147 -0.6857 -0.5147
vn -0.5147 0.6857 -0.5147
vn -0.4044 -0.6857 -0.6052
vn -0.4044 0.6857 -0.6052
vn -0.2785 -0.6857 -0.6725
vn -0.2785 0.6857 -0.6725
vn -0.1420 -0.6857 -0.7139
vn -0.1420 0.6857 -0.7139
usemtl None
s 1
f 2/1/1 3/2/2 1/3/3
f 4/4/4 5/5/5 3/2/2
f 6/6/6 7/7/7 5/5/5
f 8/8/8 9/9/9 7/7/7
f 10/10/10 11/11/11 9/9/9
f 12/12/12 13/13/13 11/11/11
f 14/14/14 15/15/15 13/13/13
f 16/16/16 17/17/17 15/15/15
f 18/18/18 19/19/19 17/17/17
f 20/20/20 21/21/21 19/19/19
f 22/22/22 23/23/23 21/21/21
f 24/24/24 25/25/25 23/23/23
f 26/26/26 27/27/27 25/25/25
f 28/28/28 29/29/29 27/27/27
f 30/30/30 31/31/31 29/29/29
f 32/32/32 33/33/33 31/31/31
f 34/34/34 35/35/35 33/33/33
f 36/36/36 37/37/37 35/35/35
f 38/38/38 39/39/39 37/37/37
f 40/40/40 41/41/41 39/39/39
f 42/42/42 43/43/43 41/41/41
f 44/44/44 45/45/45 43/43/43
f 46/46/46 47/47/47 45/45/45
f 48/48/48 49/49/49 47/47/47
f 50/50/50 51/51/51 49/49/49
f 52/52/52 53/53/53 51/51/51
f 54/54/54 55/55/55 53/56/53
f 56/57/56 57/58/57 55/55/55
f 58/59/58 59/60/59 57/58/57
f 60/61/60 61/62/61 59/60/59
f 30/63/30 22/22/22 6/6/6
f 62/64/62 63/65/63 61/62/61
f 64/66/64 1/3/3 63/65/63
f 31/67/31 47/68/47 15/15/15
f 2/1/1 4/4/4 3/2/2
f 4/4/4 6/6/6 5/5/5
f 6/6/6 8/8/8 7/7/7
f 8/8/8 10/10/10 9/9/9
f 10/10/10 12/12/12 11/11/11
f 12/12/12 14/14/14 13/13/13
f 14/14/14 16/16/16 15/15/15
f 16/16/16 18/18/18 17/17/17
f 18/18/18 20/20/20 19/19/19
f 20/20/20 22/22/22 21/21/21
f 22/22/22 24/24/24 23/23/23
f 24/24/24 26/26/26 25/25/25
f 26/26/26 28/28/28 27/27/27
f 28/28/28 30/30/30 29/29/29
f 30/30/30 32/32/32 31/31/31
f 32/32/32 34/34/34 33/33/33
f 34/34/34 36/36/36 35/35/35
f 36/36/36 38/38/38 37/37/37
f 38/38/38 40/40/40 39/39/39
f 40/40/40 42/42/42 41/41/41
f 42/42/42 44/44/44 43/43/43
f 44/44/44 46/46/46 45/45/45
f 46/46/46 48/48/48 47/47/47
f 48/48/48 50/50/50 49/49/49
f 50/50/50 52/52/52 51/51/51
f 52/52/52 54/69/54 53/53/53
f 54/54/54 56/57/56 55/55/55
f 56/57/56 58/59/58 57/58/57
f 58/59/58 60/61/60 59/60/59
f 60/61/60 62/64/62 61/62/61
f 6/6/6 4/4/4 2/1/1
f 2/1/1 64/66/64 6/6/6
f 62/64/62 60/61/60 58/59/58
f 58/59/58 56/57/56 54/54/54
f 54/54/54 52/70/52 50/71/50
f 50/71/50 48/72/48 54/54/54
f 46/73/46 44/74/44 38/75/38
f 42/76/42 40/77/40 38/75/38
f 38/75/38 36/78/36 34/79/34
f 34/79/34 32/80/32 38/75/38
f 30/63/30 28/81/28 26/26/26
f 26/26/26 24/24/24 22/22/22
f 22/22/22 20/20/20 18/18/18
f 18/18/18 16/16/16 14/14/14
f 14/14/14 12/12/12 10/10/10
f 10/10/10 8/8/8 6/6/6
f 6/6/6 64/66/64 62/64/62
f 62/64/62 58/59/58 6/6/6
f 54/54/54 48/72/48 46/73/46
f 44/74/44 42/76/42 38/75/38
f 38/75/38 32/80/32 30/63/30
f 30/63/30 26/26/26 22/22/22
f 22/22/22 18/18/18 14/14/14
f 14/14/14 10/10/10 22/22/22
f 6/6/6 58/59/58 54/54/54
f 54/54/54 46/73/46 38/75/38
f 38/75/38 30/63/30 6/6/6
f 22/22/22 10/10/10 6/6/6
f 6/6/6 54/54/54 38/75/38
f 62/64/62 64/66/64 63/65/63
f 64/66/64 2/1/1 1/3/3
f 63/65/63 1/3/3 3/2/2
f 3/2/2 5/5/5 7/7/7
f 7/7/7 9/9/9 11/11/11
f 11/11/11 13/13/13 7/7/7
f 15/15/15 17/17/17 19/19/19
f 19/19/19 21/21/21 15/15/15
f 23/82/23 25/83/25 31/67/31
f 27/84/27 29/85/29 31/67/31
f 31/67/31 33/86/33 35/87/35
f 35/87/35 37/88/37 31/67/31
f 39/89/39 41/90/41 43/91/43
f 43/91/43 45/92/45 47/68/47
f 47/68/47 49/93/49 51/94/51
f 51/94/51 53/56/53 55/55/55
f 55/55/55 57/58/57 63/65/63
f 59/60/59 61/62/61 63/65/63
f 63/65/63 3/2/2 15/15/15
f 7/7/7 13/13/13 15/15/15
f 15/15/15 21/21/21 23/82/23
f 25/83/25 27/84/27 31/67/31
f 31/67/31 37/88/37 39/89/39
f 39/89/39 43/91/43 47/68/47
f 47/68/47 51/94/51 63/65/63
f 57/58/57 59/60/59 63/65/63
f 3/2/2 7/7/7 15/15/15
f 15/15/15 23/82/23 31/67/31
f 31/67/31 39/89/39 47/68/47
f 51/94/51 55/55/55 63/65/63
f 63/65/63 15/15/15 47/68/47
